Coordinates
version=1
nRows=26
nColumns=24
inDegrees=yes

Units are S.I. units (second, meters, Newtons, ...)
Angles are in degrees.

endheader
time	pelvis_tilt	pelvis_list	pelvis_rotation	pelvis_tx	pelvis_ty	pelvis_tz	hip_flexion_r	hip_adduction_r	hip_rotation_r	knee_angle_r	ankle_angle_r	subtalar_angle_r	mtp_angle_r	hip_flexion_l	hip_adduction_l	hip_rotation_l	knee_angle_l	ankle_angle_l	subtalar_angle_l	mtp_angle_l	lumbar_extension	lumbar_bending	lumbar_rotation
      0.88366667	      1.77101038	     -5.69802170	      4.04482108	     -0.31677195	      0.99657977	      0.34751008	      9.82212389	     12.18879133	      0.90646556	    -20.18264442	      6.32945222	    -22.11112571	     -7.66900834	     14.60773574	     -6.18951456	      2.41791562	    -70.36133906	     -3.83869819	    -10.41525299	      1.84113556	     -0.36267971	      9.74042261	      0.93690622
      0.88783333	      1.87590498	     -5.59713313	      3.92991794	     -0.31177070	      0.99759304	      0.34783721	      9.12571388	     12.11274071	      0.99689011	    -19.73148539	      6.40223183	    -21.87870729	     -7.76616403	     15.13554423	     -6.05234535	      2.38756760	    -70.21495488	     -3.24599738	    -10.59277977	      1.75652307	     -0.54185836	      9.63899097	      1.11450259
      0.89200000	      1.90242364	     -5.51278125	      3.79925712	     -0.30681231	      0.99842664	      0.34818845	      8.53563727	     12.04742018	      1.08604458	    -19.31510539	      6.46554285	    -21.68592430	     -7.81395938	     15.75111416	     -5.93312214	      2.34756242	    -70.04840689	     -2.65299867	    -10.78986480	      1.71053817	     -0.63383563	      9.54391151	      1.23939015
      0.89616667	      2.00980898	     -5.40558011	      3.67744676	     -0.30181483	      0.99939739	      0.34850055	      7.83226858	     11.95280910	      1.16131420	    -18.85033848	      6.54245946	    -21.37602726	     -7.90010076	     16.24483093	     -5.79082931	      2.31265041	    -69.79637365	     -2.12935452	    -10.89570684	      1.60628712	     -0.81416942	      9.44372898	      1.48888453
      0.90033333	      2.08112613	     -5.31155426	      3.54282187	     -0.29686291	      1.00026131	      0.34882743	      7.18374148	     11.86995957	      1.24650885	    -18.40880863	      6.60393310	    -21.09435705	     -7.97069883	     16.77429802	     -5.66413712	      2.26945943	    -69.51413798	     -1.60792335	    -11.03294043	      1.50693237	     -0.96852068	      9.35363201	      1.68116851
      0.90450000	      2.11327676	     -5.22644432	      3.39110359	     -0.29193434	      1.00100853	      0.34917949	      6.59339814	     11.79222941	      1.33007031	    -17.99454530	      6.66064703	    -20.86002704	     -8.00969786	     17.33965931	     -5.55326998	      2.20769301	    -69.20246961	     -1.09660036	    -11.18163870	      1.44288222	     -1.07012076	      9.25346365	      1.82183826
      0.90866667	      2.20590100	     -5.12663590	      3.25792960	     -0.28699053	      1.00183746	      0.34947799	      5.92269873	     11.69253673	      1.38940569	    -17.54935636	      6.73887627	    -20.52549180	     -8.06869467	     17.81428274	     -5.42093108	      2.16815896	    -68.81922286	     -0.66033786	    -11.24383975	      1.32332480	     -1.24222055	      9.16696612	      2.07671696
      0.91283333	      2.24805989	     -5.03473993	      3.09023191	     -0.28207363	      1.00255230	      0.34983504	      5.32262813	     11.60223410	      1.48437058	    -17.13403892	      6.78332186	    -20.26697235	     -8.09809629	     18.33247537	     -5.31069273	      2.08914324	    -68.40514081	     -0.21203517	    -11.35258798	      1.25160007	     -1.35777770	      9.06009278	      2.22335276
      0.91700000	      2.32374772	     -4.94180158	      2.94513054	     -0.27716124	      1.00327933	      0.35012938	      4.68139319	     11.50200406	      1.54262897	    -16.70110788	      6.85544033	    -19.92561370	     -8.13629904	     18.80003201	     -5.18816362	      2.04548226	    -67.93769904	      0.16992673	    -11.37358276	      1.13517252	     -1.51507988	      8.98251631	      2.47770450
      0.92116667	      2.32186002	     -4.84480800	      2.76954727	     -0.27229850	      1.00384413	      0.35046763	      4.14737426	     11.39895545	      1.65377667	    -16.31653714	      6.91033842	    -19.69899276	     -8.14858340	     19.34200503	     -5.06081514	      1.98209643	    -67.44267321	      0.56174801	    -11.44954599	      1.08410569	     -1.59588901	      8.88274813	      2.59323784
      0.92533333	      2.40685154	     -4.74644960	      2.59694223	     -0.26736136	      1.00452471	      0.35079881	      3.50215344	     11.28594269	      1.70099961	    -15.89707605	      6.96864718	    -19.32972061	     -8.16837857	     19.75569288	     -4.95447699	      1.89555235	    -66.87748619	      0.90501740	    -11.42832270	      0.97785643	     -1.74653523	      8.78320841	      2.86673072
      0.92950000	      2.46776310	     -4.65921883	      2.44051856	     -0.26249760	      1.00510049	      0.35110710	      2.89678924	     11.18434164	      1.76185192	    -15.49308272	      7.05047496	    -18.97895985	     -8.18637883	     20.20012846	     -4.84525811	      1.84645884	    -66.29179484	      1.22645621	    -11.40200023	      0.84505515	     -1.90380585	      8.69133682	      3.11782804
      0.93366667	      2.50218182	     -4.56756495	      2.26322408	     -0.25762470	      1.00561428	      0.35142922	      2.32580196	     11.07438078	      1.83541937	    -15.10239372	      7.11593676	    -18.65762830	     -8.19844377	     20.64907607	     -4.73611858	      1.77848276	    -65.65813768	      1.53879456	    -11.36874562	      0.70379136	     -2.01624626	      8.60015248	      3.33941768
      0.93783333	      2.50597030	     -4.48677269	      2.06146417	     -0.25276726	      1.00604103	      0.35179308	      1.79269037	     10.97845006	      1.95957662	    -14.72045941	      7.15330846	    -18.40176573	     -8.19985965	     21.11606872	     -4.65158492	      1.68678237	    -64.98926327	      1.84586976	    -11.32186052	      0.63016820	     -2.09091276	      8.51820902	      3.47829985
      0.94200000	      2.51179955	     -4.41641947	      1.88106770	     -0.24792877	      1.00641233	      0.35213392	      1.25744616	     10.89100403	      2.06176700	    -14.32846744	      7.21019934	    -18.12930277	     -8.19749173	     21.57561835	     -4.57136430	      1.62748092	    -64.29151428	      2.13418149	    -11.23001851	      0.55724245	     -2.18452168	      8.43373988	      3.67103979
      0.94616667	      2.56593850	     -4.34929330	      1.72113732	     -0.24306470	      1.00681307	      0.35242687	      0.67224462	     10.79963397	      2.10342606	    -13.94085990	      7.29673719	    -17.80468537	     -8.19162501	     21.96207746	     -4.49080508	      1.58482567	    -63.54401786	      2.39607874	    -11.11277636	      0.41099276	     -2.31444932	      8.37864312	      3.96328528
      0.95033333	      2.55750393	     -4.27098870	      1.51179877	     -0.23821957	      1.00710165	      0.35280124	      0.16159970	     10.69937906	      2.23360511	    -13.57037707	      7.33832814	    -17.55779001	     -8.18436432	     22.39110842	     -4.41951425	      1.48749442	    -62.75302873	      2.64531186	    -11.01313766	      0.34044877	     -2.37408168	      8.29110461	      4.09863478
      0.95450000	      2.59870123	     -4.21924333	      1.35170594	     -0.23337960	      1.00738862	      0.35310173	     -0.40747522	     10.62320539	      2.29462659	    -13.17853474	      7.42113895	    -17.26240185	     -8.16925222	     22.76531466	     -4.35909759	      1.45157606	    -61.93902640	      2.89249069	    -10.87212750	      0.21061137	     -2.50066777	      8.23609636	      4.36792707
      0.95866667	      2.57566569	     -4.15356675	      1.14284264	     -0.22853908	      1.00756980	      0.35346189	     -0.89571245	     10.53120206	      2.42740779	    -12.81841672	      7.47083660	    -17.03029872	     -8.15752571	     23.17815147	     -4.30357731	      1.36083612	    -61.07441958	      3.11326567	    -10.75606966	      0.14402040	     -2.54358096	      8.16287820	      4.50255099
      0.96283333	      2.57766193	     -4.10273930	      0.96042298	     -0.22370583	      1.00772875	      0.35379829	     -1.41624519	     10.45474773	      2.53578320	    -12.43872842	      7.53510631	    -16.78513403	     -8.14379327	     23.55556429	     -4.25810625	      1.30054117	    -60.18181667	      3.33438998	    -10.61528726	      0.07669949	     -2.62198115	      8.10721176	      4.68786530
      0.96700000	      2.59413940	     -4.05703174	      0.77965832	     -0.21886213	      1.00786815	      0.35412948	     -1.95165865	     10.38040152	      2.63610704	    -12.06160130	      7.60501834	    -16.54209104	     -8.12784685	     23.89818755	     -4.22296991	      1.23573950	    -59.25093705	      3.53708538	    -10.47674166	      0.00511019	     -2.71529840	      8.05448171	      4.88729321
      0.97116667	      2.58239144	     -4.01998552	      0.60232349	     -0.21403156	      1.00791086	      0.35444509	     -2.44824637	     10.31359129	      2.73816082	    -11.69865710	      7.68196134	    -16.31749465	     -8.11176396	     24.25956516	     -4.19308486	      1.18064530	    -58.29159807	      3.72506826	    -10.34950251	     -0.05769904	     -2.77292081	      8.01261788	      5.05928623
      0.97533333	      2.57786461	     -3.98147351	      0.42452963	     -0.20919155	      1.00793834	      0.35476092	     -2.95389724	     10.24271236	      2.83960032	    -11.33213646	      7.75893748	    -16.09292085	     -8.09472025	     24.59110389	     -4.16698349	      1.11665617	    -57.28983781	      3.89739006	    -10.22961992	     -0.11967116	     -2.83860959	      7.96793074	      5.23438366
      0.97950000	      2.57735105	     -3.96145395	      0.25412723	     -0.20435175	      1.00791053	      0.35506850	     -3.46255324	     10.18997292	      2.93473595	    -10.96662016	      7.83920448	    -15.86910885	     -8.07591766	     24.90685300	     -4.16411105	      1.05531866	    -56.26453326	      4.06613845	    -10.10873000	     -0.18423179	     -2.90753933	      7.94035502	      5.41311568
      0.98366667	      2.58534654	     -3.93638261	      0.09605355	     -0.19949149	      1.00785006	      0.35536081	     -3.98011929	     10.12861373	      2.99473337	    -10.60059369	      7.93442848	    -15.64103992	     -8.05086047	     25.19604091	     -4.15789159	      0.98617992	    -55.20532168	      4.21528947	    -10.00734811	     -0.27040399	     -2.98229156	      7.90202167	      5.61701040
      0.98783333	      2.53078229	     -3.91563847	     -0.07933892	     -0.19466640	      1.00766201	      0.35565433	     -4.41134751	     10.07116030	      3.10289525	    -10.27300318	      8.02213748	    -15.43962434	     -8.03111015	     25.53457895	     -4.15332258	      0.92293776	    -54.11124584	      4.34926562	     -9.92502941	     -0.32655444	     -2.99332308	      7.87947818	      5.73394987
